<svg xmlns="http://www.w3.org/2000/svg" viewBox="0 0 720 320" font-family="system-ui,sans-serif" font-size="12">
<rect width="720" height="320" fill="#ffffff"/>
<text x="40" y="26" font-weight="600" fill="#222">Regressions caught</text>
<rect x="40" y="132.0" width="40" height="138.0" fill="#8a8f98" rx="3"/>
<text x="60.0" y="126.0" text-anchor="middle" fill="#222">12/20</text>
<rect x="88" y="74.5" width="40" height="195.5" fill="#c9a227" rx="3"/>
<text x="108.0" y="68.5" text-anchor="middle" fill="#222">17/20</text>
<rect x="136" y="143.5" width="40" height="126.5" fill="#a996f0" rx="3"/>
<text x="156.0" y="137.5" text-anchor="middle" fill="#222">11/20</text>
<rect x="184" y="86.0" width="40" height="184.0" fill="#5b3cc4" rx="3"/>
<text x="204.0" y="80.0" text-anchor="middle" fill="#222">16/20</text>
<line x1="34" y1="270" x2="232" y2="270" stroke="#bbb"/>
<text x="352" y="26" font-weight="600" fill="#222">False alarms on safe PRs</text>
<rect x="352" y="270.0" width="40" height="0.0" fill="#8a8f98" rx="3"/>
<text x="372.0" y="264.0" text-anchor="middle" fill="#222">0/10</text>
<rect x="400" y="247.0" width="40" height="23.0" fill="#c9a227" rx="3"/>
<text x="420.0" y="241.0" text-anchor="middle" fill="#222">1/10</text>
<rect x="448" y="247.0" width="40" height="23.0" fill="#a996f0" rx="3"/>
<text x="468.0" y="241.0" text-anchor="middle" fill="#222">1/10</text>
<rect x="496" y="270.0" width="40" height="0.0" fill="#5b3cc4" rx="3"/>
<text x="516.0" y="264.0" text-anchor="middle" fill="#222">0/10</text>
<line x1="346" y1="270" x2="544" y2="270" stroke="#bbb"/>
<rect x="40" y="280" width="12" height="12" fill="#8a8f98" rx="2"/>
<text x="58" y="290" fill="#333">App's own test suite (44 tests)</text>
<rect x="340" y="280" width="12" height="12" fill="#c9a227" rx="2"/>
<text x="358" y="290" fill="#333">AI code review (Nemotron 3 Ultra)</text>
<rect x="40" y="296" width="12" height="12" fill="#a996f0" rx="2"/>
<text x="58" y="306" fill="#333">Doppel (personas + twin + judge)</text>
<rect x="340" y="296" width="12" height="12" fill="#5b3cc4" rx="2"/>
<text x="358" y="306" fill="#333">Review-guided Doppel</text>
</svg>